<mxfile host="app.diagrams.net" modified="2023-05-18T08:07:17.752Z" agent="Mozilla/5.0 (Windows NT 10.0; Win64; x64) AppleWebKit/537.36 (KHTML, like Gecko) Chrome/113.0.0.0 Safari/537.36" version="21.3.2" etag="szphbw3Wr7ah_QYKRum_" type="github">
  <diagram name="Seite-1" id="I6iOon1RQX14vJUxu-KA">
    <mxGraphModel>
      <root>
        <mxCell id="0" />
        <mxCell id="1" parent="0" />
      </root>
    </mxGraphModel>
  </diagram>
</mxfile>
